<svg width="142" height="80" fill="none" xmlns="http://www.w3.org/2000/svg"><path d="M117.089 12.815c-11.646-2.173-16.503 7.082-17.476 11.982.966 4.563 5.372 13.693 15.271 13.702 9.899.01 21.527-12.242 26.104-18.37-3.59-.014-9.342-4.598-23.899-7.314Z" fill="url(#a)"/><path d="M117.503 23.363c2.107-1.67 6.75-5.142 8.467-5.675" stroke="#fff"/><path d="M99.994 24.877c12.776-1.771 26.512-.723 39.69-4.277" stroke="#fff"/><path d="M106.111 24.307c2.068-2.674 6.817-8.266 9.272-9.24M103.665 24.535c.22.794 1.379 6.27 9.819 9.557M113.752 24.061c.774 1.286 5.291 4.86 10.243 5.911" stroke="#fff"/><path d="M106.374 42.686c-6.937-9.603-16.836-6.248-20.919-3.37-2.447 3.972-5.55 13.623 1.614 20.454 7.163 6.831 24.033 5.974 31.572 4.692-2.589-2.486-3.596-9.772-12.267-21.776Z" fill="url(#b)"/><path d="M99.401 50.612c2.678.243 8.435.929 10.046 1.727" stroke="#fff"/><path d="M85.675 39.637c10.475 7.526 19.702 17.755 31.698 24.266" stroke="#fff"/><path d="M90.5 43.442c3.34-.512 10.636-1.288 13.086-.3M88.57 41.92c-.388.727-3.324 5.493.524 13.692M96.203 48.532c-.325 1.465.482 7.167 3.344 11.343" stroke="#fff"/><path d="M15.8 42.507c7.743-9.422 18.039-4.95 22.219-1.535 2.406 4.406 5.253 14.84-2.607 21.328-7.86 6.488-25.62 3.971-33.517 1.902 2.842-2.363 4.226-9.918 13.905-21.695Z" fill="url(#c)"/><path d="M22.807 51.5c-2.836-.002-8.94.166-10.674.85" stroke="#fff"/><path d="M37.772 41.288c-11.383 6.9-21.57 16.76-34.514 22.449" stroke="#fff"/><path d="M32.516 44.822c-3.503-.858-11.166-2.373-13.793-1.57M34.618 43.408c.377.8 3.264 6.088-1.158 14.33M26.273 49.621c.278 1.57-.825 7.482-4.03 11.594" stroke="#fff"/><path d="M101.114 28.175c-2.21 2.802-7.782 8.188-12.389 7.31-5.76-1.096-7.28-3.862-10.506-4.16" stroke="url(#d)" stroke-width="2"/><path d="M86.097 10.34c-3.822.077-11.614 1.326-12.198 5.707-.73 5.477 2.944 8.351 4.81 8.983" stroke="url(#e)" stroke-width="2"/><path d="M86.097 10.34c-3.822.077-11.614 1.326-12.198 5.707-.73 5.477 2.944 8.351 4.81 8.983" stroke="url(#f)" stroke-width="2"/><path d="M86.387 5.917c2.29 2.375 7.435 3.288 9.722 3.448 5.045.684 5.621 5.034 5.279 7.124 2.189 4.234 4.64 14.595-3.067 22.169-7.706 7.573-22.608 5.227-29.095 3.108-5.855-2.231-8.882-6.902-9.664-8.958-5.453-2.157-6.221-7.172-5.492-8.749.583-1.261.35-3.568.16-4.564.35-3.855 5.264-6.638 7.678-7.548.512-3.067 4.737-8.233 8.72-10.319C74.61-.458 83.523 2.95 86.386 5.918Z" fill="#FACA82"/><path d="M63.434 41.609c-9.825-8.993-8.629-19.306-5.58-21.663.934-1.028 4.633-4.5 11.95-10.156 9.144-7.07 40.479 10.643 31.225 24.7-9.255 14.058-25.314 18.36-37.595 7.119Z" fill="#D8A034"/><path fill-rule="evenodd" clip-rule="evenodd" d="M61.96 11.682c-.256 2.813.094 6.498 2.014 10.59.543 1.192 1.729 4.551 2.132 8.444 1.68 3.357 8.43 9.569 21.982 7.561 3.745-.52 11.979-3.215 15.325-9.852-.444 3.466-1.893 7.09-5.091 10.233-7.707 7.573-22.609 5.227-29.096 3.108-5.855-2.231-8.882-6.902-9.664-8.958-5.453-2.157-6.221-7.172-5.492-8.749.583-1.261.35-3.568.16-4.564.35-3.855 5.264-6.638 7.678-7.548.014-.086.032-.175.052-.265Z" fill="#F2BE59"/><ellipse cx="6.468" cy="5.91" rx="6.468" ry="5.91" transform="matrix(-.99874 -.05025 -.0349 .9994 90.525 10.967)" fill="#F2E77F"/><ellipse cx="3.093" cy="2.931" rx="3.093" ry="2.931" transform="matrix(-.79982 -.61213 -.60158 .78972 86.846 18.387)" fill="#EABD89"/><path d="M88.076 19.316c2.106-1.616 1.727-4.396 1.274-5.584.656.526 1.864 2.218 1.45 4.78-.412 2.56-3.993 6.253-4.944 6.474-.951.221-3.202-.968-5.689-3.11-3.566-3.072-2.578-7.257-2.578-7.257.196-1.738 2.41-3.375 3.222-3.469.65-.074.62.256.525.43-1.216.074-2.094 2.047-2.4 3.107-.308 1.06.685 3.53 1.859 4.666 1.173 1.135 4.65 1.982 7.281-.037Z" fill="#F2BE59"/><path d="M97.58 21.273c.977-.166 1.712 1.162 1.675 2.236-.038 1.074-.14 4.027-3.91 7.737-4.318 4.25-8.445 3.744-10.077 2.855-1.675-.936-5.723-2.897-8.515-3.253-2.792-.355-5.995-3.35-7.248-4.802-.127-.23.001-.807 1.528-1.268 1.526-.46 8.039 1.436 11.105 2.442-5.782-4.326-6.139-5.688-6.862-8.145-.578-1.966 1.394-5.175 2.5-5.926-.846 1.033-.873 3.016-.578 4.947.682 4.457 6.644 6.654 8.346 8.085 1.703 1.43 3.805 3.015 7.472 2.258 2.933-.605 3.481-3.186 3.39-4.401-.016-.853.198-2.6 1.174-2.765Z" fill="#F2BE59"/><path d="M69.101 6.717c2.846-4.429 12.903-2.712 17.389 3.968-14.326-2.872-19.343 9.516-17.432 12.705 1.53 2.552 1.625 8.823 1.481 11.64-.553-.88-1.795-2.646-2.333-2.673-4.802-5.351-2.954-19.647.895-25.64Z" fill="#F2BE59"/><path d="M99.385 23.65c.103 2.202-.678 7.04-4.621 8.777-4.93 2.173-3.444 2.113-7.77 2.433" stroke="url(#g)"/><path d="M97.875 28.28c-1.895 4.074-10.241 7.554-17.564 4.9-7.322-2.655-7.294-3.46-9.757-6.274" stroke="url(#h)"/><path d="M84.8 20.495c-3.5-.176-4.804-1.451-5.55-3.237-.747-1.786-1.404-6.122 4.007-6.657" stroke="url(#i)"/><path d="M84.8 20.495c-3.5-.176-4.804-1.451-5.55-3.237-.747-1.786-1.404-6.122 4.007-6.657" stroke="url(#j)"/><path d="M84.8 20.495c-3.5-.176-4.804-1.451-5.55-3.237-.747-1.786-1.404-6.122 4.007-6.657" stroke="url(#k)"/><path d="M88.921 18.282c-3.909 3.838-7.783 2.814-9.152-.46-1.368-3.274.494-6.43 5.906-6.964" stroke="url(#l)"/><path d="M85.833 10.193c-.515-.698-7.562-7.373-13.285-5.644-5.723 1.73-7.912 10.36-7.232 17.925" stroke="url(#m)"/><path d="M81.37 6.74C69.695 1.313 66.4 14.434 65.39 20.327c-.846 4.933 3.558 6.23 5.411 14.93" stroke="#fff"/><path d="M61.639 11.934c-4.664 2.276-12.18 9.043-4.94 17.906 9.051 11.079 13.557 13.323 18.666 13.714" stroke="url(#n)"/><path d="M103.072 30.021c-.738 1.846-.908 10.578-12.34 13.634-9.146 2.444-20.1-.967-24.434-2.978" stroke="url(#o)"/><path d="M75.658 15.867c-1.302 1.234-2.174 5.108 4.749 10.728M77.5 13.27c-3.03 1.864-5.503 10.884 10.915 15.61" stroke="url(#p)"/><path d="M24.485 31.34c1.834 2.324 6.455 6.79 10.276 6.063 4.777-.91 6.039-3.204 8.714-3.45" stroke="url(#q)" stroke-width="2"/><path d="M36.94 16.548c3.171.063 9.634 1.099 10.118 4.733.606 4.542-2.442 6.926-3.989 7.45" stroke="url(#r)" stroke-width="2"/><path d="M36.94 16.548c3.171.063 9.634 1.099 10.118 4.733.606 4.542-2.442 6.926-3.989 7.45" stroke="url(#s)" stroke-width="2"/><path d="M36.7 12.88c-1.899 1.969-6.166 2.726-8.063 2.859-4.184.567-4.662 4.175-4.378 5.909-1.816 3.511-3.849 12.105 2.543 18.386 6.392 6.282 18.751 4.336 24.132 2.578 4.856-1.85 7.367-5.724 8.016-7.43 4.522-1.789 5.16-5.948 4.555-7.256-.484-1.046-.29-2.96-.133-3.785-.29-3.198-4.367-5.506-6.368-6.26-.425-2.544-3.93-6.83-7.232-8.56-3.304-1.73-10.697 1.097-13.071 3.558Z" fill="#FED27D"/><path d="M55.738 42.482c8.149-7.459 7.157-16.012 4.628-17.967-.775-.853-3.843-3.733-9.91-8.424-7.586-5.864-33.575 8.828-25.9 20.487 7.676 11.66 20.996 15.228 31.182 5.904Z" fill="#E5AE42"/><g filter="url(#t)"><path fill-rule="evenodd" clip-rule="evenodd" d="M56.96 17.66c.213 2.334-.078 5.39-1.67 8.784-.45.989-1.434 3.775-1.768 7.004-1.394 2.784-6.992 7.936-18.233 6.27-3.105-.43-9.935-2.666-12.71-8.17.369 2.874 1.57 5.88 4.223 8.486 6.392 6.282 18.751 4.336 24.132 2.578 4.856-1.85 7.367-5.724 8.016-7.43 4.522-1.789 5.16-5.948 4.555-7.256-.484-1.046-.29-2.96-.133-3.785-.29-3.198-4.367-5.506-6.368-6.26a4.001 4.001 0 0 0-.044-.22Z" fill="#EFCE58"/></g><ellipse cx="5.365" cy="4.902" rx="5.365" ry="4.902" transform="matrix(.99874 -.05025 .0349 .9994 33.269 17.067)" fill="#F3E77B"/><path d="M41.086 22.614c.446.584.342 1.527-.39 2.088-.733.56-1.668.412-2.113-.172-.446-.585-.342-1.528.39-2.089.733-.56 1.668-.412 2.113.173Z" fill="#FFD542" stroke="url(#u)" stroke-width="2"/><g filter="url(#v)"><path d="M35.3 23.992c-1.747-1.34-1.432-3.646-1.057-4.631-.544.436-1.546 1.84-1.203 3.964.342 2.124 3.312 5.187 4.101 5.37.79.184 2.656-.803 4.718-2.58 2.958-2.547 2.138-6.018 2.138-6.018-.162-1.442-1.998-2.8-2.672-2.877-.539-.062-.514.212-.435.356 1.009.061 1.737 1.697 1.991 2.577.255.88-.569 2.928-1.542 3.87-.974.94-3.856 1.644-6.04-.031Z" fill="url(#w)"/></g><g filter="url(#x)"><path d="M27.417 25.615c-.81-.137-1.42.964-1.39 1.855.032.89.117 3.34 3.244 6.417 3.581 3.524 7.004 3.105 8.358 2.368 1.389-.776 4.747-2.403 7.062-2.698 2.316-.295 4.972-2.778 6.011-3.983.106-.19 0-.669-1.266-1.051-1.266-.383-6.668 1.19-9.211 2.025 4.795-3.588 5.091-4.718 5.69-6.756.48-1.63-1.155-4.292-2.072-4.915.701.857.724 2.502.479 4.103-.566 3.697-5.51 5.52-6.923 6.706-1.412 1.186-3.155 2.501-6.196 1.873-2.433-.502-2.888-2.643-2.812-3.65.013-.707-.164-2.156-.974-2.294Z" fill="#EFCE58"/></g><g filter="url(#y)"><path d="M51.037 13.543c-2.36-3.674-10.701-2.25-14.422 3.29 11.882-2.381 16.043 7.893 14.458 10.539-1.268 2.116-1.347 7.317-1.228 9.653.459-.73 1.489-2.194 1.935-2.216 3.983-4.439 2.45-16.296-.743-21.266Z" fill="#EFCE58"/></g><path d="M25.92 27.587c-.085 1.826.562 5.838 3.833 7.28 4.088 1.802 2.856 1.752 6.444 2.018" stroke="url(#z)"/><path d="M27.172 31.427c1.572 3.379 8.494 6.265 14.568 4.063 6.073-2.201 6.05-2.87 8.093-5.203" stroke="url(#A)"/><path d="M38.017 24.97c2.903-.146 3.984-1.204 4.603-2.685.62-1.481 1.165-5.078-3.324-5.521" stroke="url(#B)"/><path d="M38.017 24.97c2.903-.146 3.984-1.204 4.603-2.685.62-1.481 1.165-5.078-3.324-5.521" stroke="url(#C)"/><path d="M38.017 24.97c2.903-.146 3.984-1.204 4.603-2.685.62-1.481 1.165-5.078-3.324-5.521" stroke="url(#D)"/><path d="M37.16 16.426c.427-.58 6.272-6.116 11.019-4.682 4.746 1.434 6.562 8.593 5.998 14.867" stroke="url(#E)"/><path d="M40.862 13.562c9.683-4.502 12.415 6.38 13.253 11.268.702 4.091-2.95 5.167-4.488 12.383" stroke="#fff"/><path d="M57.227 17.87c3.868 1.887 10.102 7.5 4.097 14.85-7.507 9.19-11.244 11.05-15.482 11.375" stroke="url(#F)"/><path d="M22.862 32.871c.612 1.531.753 8.774 10.235 11.308 7.585 2.027 16.671-.802 20.266-2.47" stroke="url(#G)"/><path d="M45.6 21.131c1.079 1.024 1.802 4.237-3.94 8.898m2.41-11.052c2.514 1.547 4.565 9.028-9.053 12.948" stroke="url(#H)"/><defs><linearGradient id="a" x1="122.236" y1="13.879" x2="116.85" y2="39.252" gradientUnits="userSpaceOnUse"><stop stop-color="#29791C"/><stop offset="1" stop-color="#7D7A5F"/></linearGradient><linearGradient id="b" x1="109.369" y1="47.005" x2="87.973" y2="61.671" gradientUnits="userSpaceOnUse"><stop stop-color="#29791C"/><stop offset="1" stop-color="#7D7A5F"/></linearGradient><linearGradient id="c" x1="38.643" y1="41.456" x2="3.204" y2="64.571" gradientUnits="userSpaceOnUse"><stop stop-color="#29791C"/><stop offset="1" stop-color="#B5C37F"/></linearGradient><linearGradient id="d" x1="89.742" y1="27.602" x2="89.341" y2="35.567" gradientUnits="userSpaceOnUse"><stop stop-color="#fff" stop-opacity="0"/><stop offset="1" stop-color="#fff"/></linearGradient><linearGradient id="e" x1="80.082" y1="10.038" x2="79.326" y2="25.061" gradientUnits="userSpaceOnUse"><stop stop-color="#fff" stop-opacity="0"/><stop offset="1" stop-color="#fff"/></linearGradient><linearGradient id="f" x1="80.082" y1="10.038" x2="79.326" y2="25.061" gradientUnits="userSpaceOnUse"><stop stop-color="#fff" stop-opacity="0"/><stop offset="1" stop-color="#fff"/></linearGradient><linearGradient id="g" x1="100.122" y1="23.687" x2="87.073" y2="23.742" gradientUnits="userSpaceOnUse"><stop offset=".01" stop-color="#fff" stop-opacity="0"/><stop offset=".24" stop-color="#fff"/><stop offset=".818" stop-color="#fff"/><stop offset="1" stop-color="#fff" stop-opacity="0"/></linearGradient><linearGradient id="h" x1="99.49" y1="28.362" x2="70.447" y2="32.057" gradientUnits="userSpaceOnUse"><stop offset=".01" stop-color="#fff" stop-opacity="0"/><stop offset=".24" stop-color="#fff"/><stop offset=".818" stop-color="#fff"/><stop offset="1" stop-color="#fff" stop-opacity="0"/></linearGradient><linearGradient id="i" x1="86.218" y1="10.75" x2="85.844" y2="23.511" gradientUnits="userSpaceOnUse"><stop offset=".01" stop-color="#fff" stop-opacity="0"/><stop offset=".24" stop-color="#fff"/><stop offset=".818" stop-color="#fff"/><stop offset="1" stop-color="#fff" stop-opacity="0"/></linearGradient><linearGradient id="j" x1="86.218" y1="10.75" x2="85.844" y2="23.511" gradientUnits="userSpaceOnUse"><stop offset=".01" stop-color="#fff" stop-opacity="0"/><stop offset=".24" stop-color="#fff"/><stop offset=".818" stop-color="#fff"/><stop offset="1" stop-color="#fff" stop-opacity="0"/></linearGradient><linearGradient id="k" x1="86.218" y1="10.75" x2="85.844" y2="23.511" gradientUnits="userSpaceOnUse"><stop offset=".01" stop-color="#fff" stop-opacity="0"/><stop offset=".24" stop-color="#fff"/><stop offset=".818" stop-color="#fff"/><stop offset="1" stop-color="#fff" stop-opacity="0"/></linearGradient><linearGradient id="l" x1="89.209" y1="17.759" x2="80.376" y2="24.758" gradientUnits="userSpaceOnUse"><stop offset=".01" stop-color="#fff" stop-opacity="0"/><stop offset=".279" stop-color="#fff"/><stop offset=".818" stop-color="#fff"/><stop offset="1" stop-color="#fff" stop-opacity="0"/></linearGradient><linearGradient id="m" x1="86.033" y1="8.32" x2="75.792" y2="22.434" gradientUnits="userSpaceOnUse"><stop offset=".019" stop-color="#fff" stop-opacity=".07"/><stop offset=".56" stop-color="#fff"/><stop offset="1" stop-color="#fff" stop-opacity="0"/></linearGradient><linearGradient id="n" x1="76.391" y1="18.451" x2="58.394" y2="35.178" gradientUnits="userSpaceOnUse"><stop offset=".019" stop-color="#fff" stop-opacity=".07"/><stop offset=".56" stop-color="#fff"/><stop offset="1" stop-color="#fff" stop-opacity="0"/></linearGradient><linearGradient id="o" x1="103.212" y1="32.922" x2="97.599" y2="48.553" gradientUnits="userSpaceOnUse"><stop offset=".019" stop-color="#fff" stop-opacity=".07"/><stop offset=".56" stop-color="#fff"/><stop offset="1" stop-color="#fff" stop-opacity="0"/></linearGradient><linearGradient id="p" x1="82.718" y1="15.993" x2="75.206" y2="21.861" gradientUnits="userSpaceOnUse"><stop offset=".019" stop-color="#fff" stop-opacity=".07"/><stop offset=".56" stop-color="#fff"/><stop offset="1" stop-color="#fff" stop-opacity="0"/></linearGradient><linearGradient id="q" x1="33.918" y1="30.865" x2="34.251" y2="37.471" gradientUnits="userSpaceOnUse"><stop stop-color="#fff" stop-opacity="0"/><stop offset="1" stop-color="#fff"/></linearGradient><linearGradient id="r" x1="41.93" y1="16.297" x2="42.557" y2="28.757" gradientUnits="userSpaceOnUse"><stop stop-color="#fff" stop-opacity="0"/><stop offset="1" stop-color="#fff"/></linearGradient><linearGradient id="s" x1="41.93" y1="16.297" x2="42.557" y2="28.757" gradientUnits="userSpaceOnUse"><stop stop-color="#fff" stop-opacity="0"/><stop offset="1" stop-color="#fff"/></linearGradient><linearGradient id="u" x1="38.372" y1="21.652" x2="39.518" y2="23.827" gradientUnits="userSpaceOnUse"><stop stop-color="#F5B7BE"/><stop offset="1" stop-color="#EE9CA5" stop-opacity="0"/></linearGradient><linearGradient id="w" x1="38.469" y1="18.702" x2="39.248" y2="34.166" gradientUnits="userSpaceOnUse"><stop stop-color="#EFCE58"/><stop offset="1" stop-color="#F2B9AE"/></linearGradient><linearGradient id="z" x1="25.308" y1="27.617" x2="36.132" y2="27.663" gradientUnits="userSpaceOnUse"><stop offset=".01" stop-color="#fff" stop-opacity="0"/><stop offset=".24" stop-color="#fff"/><stop offset=".818" stop-color="#fff"/><stop offset="1" stop-color="#fff" stop-opacity="0"/></linearGradient><linearGradient id="A" x1="25.833" y1="31.495" x2="49.921" y2="34.56" gradientUnits="userSpaceOnUse"><stop offset=".01" stop-color="#fff" stop-opacity="0"/><stop offset=".24" stop-color="#fff"/><stop offset=".818" stop-color="#fff"/><stop offset="1" stop-color="#fff" stop-opacity="0"/></linearGradient><linearGradient id="B" x1="36.841" y1="16.887" x2="37.151" y2="27.471" gradientUnits="userSpaceOnUse"><stop offset=".01" stop-color="#fff" stop-opacity="0"/><stop offset=".24" stop-color="#fff"/><stop offset=".818" stop-color="#fff"/><stop offset="1" stop-color="#fff" stop-opacity="0"/></linearGradient><linearGradient id="C" x1="36.841" y1="16.887" x2="37.151" y2="27.471" gradientUnits="userSpaceOnUse"><stop offset=".01" stop-color="#fff" stop-opacity="0"/><stop offset=".24" stop-color="#fff"/><stop offset=".818" stop-color="#fff"/><stop offset="1" stop-color="#fff" stop-opacity="0"/></linearGradient><linearGradient id="D" x1="36.841" y1="16.887" x2="37.151" y2="27.471" gradientUnits="userSpaceOnUse"><stop offset=".01" stop-color="#fff" stop-opacity="0"/><stop offset=".24" stop-color="#fff"/><stop offset=".818" stop-color="#fff"/><stop offset="1" stop-color="#fff" stop-opacity="0"/></linearGradient><linearGradient id="E" x1="36.994" y1="14.872" x2="45.488" y2="26.578" gradientUnits="userSpaceOnUse"><stop offset=".019" stop-color="#fff" stop-opacity=".07"/><stop offset=".56" stop-color="#fff"/><stop offset="1" stop-color="#fff" stop-opacity="0"/></linearGradient><linearGradient id="F" x1="44.992" y1="23.275" x2="59.918" y2="37.148" gradientUnits="userSpaceOnUse"><stop offset=".019" stop-color="#fff" stop-opacity=".07"/><stop offset=".56" stop-color="#fff"/><stop offset="1" stop-color="#fff" stop-opacity="0"/></linearGradient><linearGradient id="G" x1="22.745" y1="35.277" x2="27.401" y2="48.242" gradientUnits="userSpaceOnUse"><stop offset=".019" stop-color="#fff" stop-opacity=".07"/><stop offset=".56" stop-color="#fff"/><stop offset="1" stop-color="#fff" stop-opacity="0"/></linearGradient><linearGradient id="H" x1="39.744" y1="21.236" x2="45.974" y2="26.103" gradientUnits="userSpaceOnUse"><stop offset=".019" stop-color="#fff" stop-opacity=".07"/><stop offset=".56" stop-color="#fff"/><stop offset="1" stop-color="#fff" stop-opacity="0"/></linearGradient><filter id="t" x="18.579" y="17.661" width="49.118" height="34.682" filterUnits="userSpaceOnUse" color-interpolation-filters="sRGB"><feFlood flood-opacity="0" result="BackgroundImageFix"/><feColorMatrix in="SourceAlpha" values="0 0 0 0 0 0 0 0 0 0 0 0 0 0 0 0 0 0 127 0" result="hardAlpha"/><feOffset dy="4"/><feGaussianBlur stdDeviation="2"/><feComposite in2="hardAlpha" operator="out"/><feColorMatrix values="0 0 0 0 0 0 0 0 0 0 0 0 0 0 0 0 0 0 0.25 0"/><feBlend in2="BackgroundImageFix" result="effect1_dropShadow_102_71"/><feBlend in="SourceGraphic" in2="effect1_dropShadow_102_71" result="shape"/></filter><filter id="v" x="28.97" y="17.211" width="19.132" height="19.506" filterUnits="userSpaceOnUse" color-interpolation-filters="sRGB"><feFlood flood-opacity="0" result="BackgroundImageFix"/><feColorMatrix in="SourceAlpha" values="0 0 0 0 0 0 0 0 0 0 0 0 0 0 0 0 0 0 127 0" result="hardAlpha"/><feOffset dy="4"/><feGaussianBlur stdDeviation="2"/><feComposite in2="hardAlpha" operator="out"/><feColorMatrix values="0 0 0 0 0 0 0 0 0 0 0 0 0 0 0 0 0 0 0.25 0"/><feBlend in2="BackgroundImageFix" result="effect1_dropShadow_102_71"/><feBlend in="SourceGraphic" in2="effect1_dropShadow_102_71" result="shape"/></filter><filter id="x" x="22.027" y="18.877" width="32.706" height="25.882" filterUnits="userSpaceOnUse" color-interpolation-filters="sRGB"><feFlood flood-opacity="0" result="BackgroundImageFix"/><feColorMatrix in="SourceAlpha" values="0 0 0 0 0 0 0 0 0 0 0 0 0 0 0 0 0 0 127 0" result="hardAlpha"/><feOffset dy="4"/><feGaussianBlur stdDeviation="2"/><feComposite in2="hardAlpha" operator="out"/><feColorMatrix values="0 0 0 0 0 0 0 0 0 0 0 0 0 0 0 0 0 0 0.25 0"/><feBlend in2="BackgroundImageFix" result="effect1_dropShadow_102_71"/><feBlend in="SourceGraphic" in2="effect1_dropShadow_102_71" result="shape"/></filter><filter id="y" x="32.615" y="11.509" width="25.55" height="33.516" filterUnits="userSpaceOnUse" color-interpolation-filters="sRGB"><feFlood flood-opacity="0" result="BackgroundImageFix"/><feColorMatrix in="SourceAlpha" values="0 0 0 0 0 0 0 0 0 0 0 0 0 0 0 0 0 0 127 0" result="hardAlpha"/><feOffset dy="4"/><feGaussianBlur stdDeviation="2"/><feComposite in2="hardAlpha" operator="out"/><feColorMatrix values="0 0 0 0 0 0 0 0 0 0 0 0 0 0 0 0 0 0 0.25 0"/><feBlend in2="BackgroundImageFix" result="effect1_dropShadow_102_71"/><feBlend in="SourceGraphic" in2="effect1_dropShadow_102_71" result="shape"/></filter></defs></svg>