<svg width="142" height="80" fill="none" xmlns="http://www.w3.org/2000/svg"><path d="M117.089 12.815c-11.645-2.173-16.503 7.082-17.475 11.982.965 4.563 5.372 13.693 15.27 13.702 9.899.01 21.527-12.242 26.104-18.37-3.59-.014-9.342-4.598-23.899-7.314Z" fill="url(#a)"/><path d="M117.503 23.363c2.107-1.67 6.75-5.142 8.467-5.675" stroke="#fff"/><path d="M99.995 24.877c12.775-1.771 26.511-.723 39.689-4.277" stroke="#fff"/><path d="M106.112 24.307c2.067-2.674 6.816-8.266 9.272-9.24M103.665 24.535c.22.794 1.379 6.27 9.819 9.557M113.752 24.061c.775 1.286 5.291 4.86 10.243 5.911" stroke="#fff"/><path d="M106.374 42.686c-6.936-9.603-16.836-6.248-20.919-3.37-2.447 3.972-5.55 13.623 1.614 20.454 7.164 6.831 24.033 5.974 31.573 4.692-2.59-2.486-3.596-9.772-12.268-21.776Z" fill="url(#b)"/><path d="M99.402 50.612c2.677.243 8.434.929 10.045 1.727" stroke="#fff"/><path d="M85.676 39.637c10.475 7.526 19.702 17.755 31.697 24.266" stroke="#fff"/><path d="M90.5 43.442c3.341-.512 10.636-1.288 13.086-.3M88.57 41.92c-.388.727-3.324 5.493.524 13.692M96.203 48.532c-.325 1.465.482 7.167 3.344 11.343" stroke="#fff"/><path d="M15.8 42.507c7.744-9.422 18.04-4.95 22.22-1.535 2.405 4.406 5.252 14.84-2.608 21.328-7.86 6.488-25.62 3.971-33.517 1.902 2.843-2.363 4.226-9.918 13.905-21.695Z" fill="url(#c)"/><path d="M22.807 51.5c-2.835-.002-8.94.166-10.674.85" stroke="#fff"/><path d="M37.773 41.288c-11.384 6.9-21.571 16.76-34.514 22.449" stroke="#fff"/><path d="M32.516 44.822c-3.503-.858-11.165-2.373-13.793-1.57M34.618 43.408c.378.8 3.265 6.088-1.157 14.33M26.273 49.621c.279 1.57-.825 7.482-4.03 11.594" stroke="#fff"/><path d="M101.115 28.175c-2.21 2.802-7.782 8.188-12.39 7.31-5.759-1.096-7.28-3.862-10.506-4.16" stroke="url(#d)" stroke-width="2"/><path d="M86.098 10.34c-3.823.077-11.614 1.326-12.199 5.707-.73 5.477 2.944 8.351 4.81 8.983" stroke="url(#e)" stroke-width="2"/><path d="M86.098 10.34c-3.823.077-11.614 1.326-12.199 5.707-.73 5.477 2.944 8.351 4.81 8.983" stroke="url(#f)" stroke-width="2"/><path d="M86.387 5.917c2.29 2.375 7.435 3.288 9.722 3.448 5.045.684 5.621 5.034 5.279 7.124 2.189 4.234 4.64 14.595-3.066 22.169-7.707 7.573-22.609 5.227-29.096 3.108-5.854-2.231-8.882-6.902-9.664-8.958-5.453-2.157-6.221-7.172-5.492-8.749.583-1.261.35-3.568.16-4.564.35-3.855 5.265-6.638 7.678-7.548.512-3.067 4.737-8.233 8.72-10.319 3.982-2.086 12.897 1.321 15.76 4.29Z" fill="#82C0FA"/><path d="M63.434 41.609c-9.825-8.993-8.628-19.306-5.58-21.663.935-1.028 4.633-4.5 11.95-10.156 9.145-7.07 40.479 10.643 31.225 24.7-9.254 14.058-25.314 18.36-37.595 7.119Z" fill="#4F9CE3"/><path fill-rule="evenodd" clip-rule="evenodd" d="M61.96 11.682c-.256 2.813.094 6.498 2.015 10.59.542 1.192 1.728 4.551 2.132 8.444 1.68 3.357 8.429 9.569 21.981 7.561 3.745-.52 11.979-3.215 15.325-9.852-.444 3.466-1.893 7.09-5.091 10.233-7.707 7.573-22.609 5.227-29.096 3.108-5.854-2.231-8.882-6.902-9.664-8.958-5.452-2.157-6.221-7.172-5.492-8.749.583-1.261.35-3.568.16-4.564.35-3.855 5.265-6.638 7.678-7.548.015-.086.032-.175.053-.265Z" fill="#3D78D0"/><ellipse cx="6.468" cy="5.91" rx="6.468" ry="5.91" transform="matrix(-.99874 -.05025 -.0349 .9994 90.525 10.967)" fill="#1A6CCC"/><ellipse cx="3.093" cy="2.931" rx="3.093" ry="2.931" transform="matrix(-.79982 -.61213 -.60158 .78972 86.846 18.387)" fill="#687DCA"/><path d="M88.077 19.316c2.105-1.616 1.726-4.396 1.273-5.584.656.526 1.864 2.218 1.451 4.78-.413 2.56-3.993 6.253-4.945 6.474-.951.221-3.202-.968-5.689-3.11-3.566-3.072-2.577-7.257-2.577-7.257.195-1.738 2.41-3.375 3.222-3.469.65-.074.62.256.524.43-1.216.074-2.094 2.047-2.4 3.107-.307 1.06.685 3.53 1.859 4.666 1.174 1.135 4.65 1.982 7.282-.037Z" fill="#59C4F2"/><path d="M97.58 21.273c.977-.166 1.713 1.162 1.675 2.236-.037 1.074-.14 4.027-3.91 7.737-4.318 4.25-8.445 3.744-10.077 2.855-1.675-.936-5.723-2.897-8.515-3.253-2.792-.355-5.995-3.35-7.248-4.802-.126-.23.002-.807 1.528-1.268 1.526-.46 8.039 1.436 11.105 2.442-5.781-4.326-6.138-5.688-6.861-8.145-.579-1.966 1.394-5.175 2.499-5.926-.846 1.033-.873 3.016-.578 4.947.682 4.457 6.644 6.654 8.347 8.085 1.703 1.43 3.804 3.015 7.471 2.258 2.933-.605 3.482-3.186 3.39-4.401-.016-.853.198-2.6 1.175-2.765Z" fill="#3D78D0"/><path d="M69.102 6.717c2.845-4.429 12.903-2.712 17.388 3.968C72.164 7.813 67.148 20.201 69.06 23.39c1.529 2.552 1.624 8.823 1.48 11.64-.553-.88-1.794-2.646-2.333-2.673-4.801-5.351-2.954-19.647.896-25.64Z" fill="#3D78D0"/><path d="M99.385 23.65c.103 2.202-.677 7.04-4.62 8.777-4.93 2.173-3.445 2.113-7.77 2.433" stroke="url(#g)"/><path d="M97.875 28.28c-1.895 4.074-10.24 7.554-17.563 4.9-7.323-2.655-7.295-3.46-9.758-6.274" stroke="url(#h)"/><path d="M84.8 20.495c-3.5-.176-4.803-1.451-5.55-3.237-.747-1.786-1.404-6.122 4.007-6.657" stroke="url(#i)"/><path d="M84.8 20.495c-3.5-.176-4.803-1.451-5.55-3.237-.747-1.786-1.404-6.122 4.007-6.657" stroke="url(#j)"/><path d="M84.8 20.495c-3.5-.176-4.803-1.451-5.55-3.237-.747-1.786-1.404-6.122 4.007-6.657" stroke="url(#k)"/><path d="M88.921 18.282c-3.909 3.838-7.783 2.814-9.151-.46-1.37-3.274.494-6.43 5.905-6.964" stroke="url(#l)"/><path d="M85.834 10.193c-.515-.698-7.563-7.373-13.286-5.644-5.723 1.73-7.912 10.36-7.232 17.925" stroke="url(#m)"/><path d="M81.37 6.74c-11.675-5.428-14.968 7.693-15.98 13.586-.846 4.933 3.558 6.23 5.412 14.93" stroke="#fff"/><path d="M61.64 11.934c-4.664 2.276-12.181 9.043-4.94 17.906 9.05 11.079 13.556 13.323 18.666 13.714" stroke="url(#n)"/><path d="M103.073 30.021c-.739 1.846-.909 10.578-12.341 13.634-9.146 2.444-20.1-.967-24.434-2.978" stroke="url(#o)"/><path d="M75.658 15.867c-1.301 1.234-2.174 5.108 4.749 10.728M77.502 13.27c-3.032 1.864-5.504 10.884 10.915 15.61" stroke="url(#p)"/><path d="M24.486 31.34c1.833 2.324 6.454 6.79 10.276 6.063 4.776-.91 6.038-3.204 8.713-3.45" stroke="url(#q)" stroke-width="2"/><path d="M36.941 16.548c3.17.063 9.633 1.099 10.118 4.733.606 4.542-2.442 6.926-3.99 7.45" stroke="url(#r)" stroke-width="2"/><path d="M36.941 16.548c3.17.063 9.633 1.099 10.118 4.733.606 4.542-2.442 6.926-3.99 7.45" stroke="url(#s)" stroke-width="2"/><path d="M36.701 12.88c-1.9 1.969-6.167 2.726-8.063 2.859-4.185.567-4.663 4.175-4.379 5.909-1.815 3.511-3.849 12.105 2.543 18.386 6.392 6.282 18.752 4.336 24.133 2.578 4.855-1.85 7.366-5.724 8.015-7.43 4.522-1.789 5.16-5.948 4.555-7.256-.484-1.046-.29-2.96-.132-3.785-.29-3.198-4.367-5.506-6.37-6.26-.423-2.544-3.928-6.83-7.231-8.56-3.303-1.73-10.697 1.097-13.071 3.558Z" fill="#A9D1FF"/><path d="M55.738 42.482c8.149-7.459 7.157-16.012 4.629-17.967-.776-.853-3.843-3.733-9.911-8.424-7.586-5.864-33.575 8.828-25.899 20.487 7.676 11.66 20.996 15.228 31.181 5.904Z" fill="#4297E5"/><g filter="url(#t)"><path fill-rule="evenodd" clip-rule="evenodd" d="M56.96 17.66c.213 2.334-.077 5.39-1.67 8.784-.45.989-1.434 3.775-1.768 7.004-1.394 2.784-6.992 7.936-18.232 6.27-3.106-.43-9.935-2.666-12.71-8.17.368 2.874 1.57 5.88 4.222 8.486 6.392 6.282 18.752 4.336 24.132 2.578 4.856-1.85 7.367-5.724 8.016-7.43 4.522-1.789 5.16-5.948 4.555-7.256-.484-1.046-.29-2.96-.132-3.785-.29-3.198-4.367-5.506-6.37-6.26a3.912 3.912 0 0 0-.042-.22Z" fill="#5BA7D1"/></g><ellipse cx="5.365" cy="4.902" rx="5.365" ry="4.902" transform="matrix(.99874 -.05025 .0349 .9994 33.269 17.067)" fill="#7BB9F3"/><ellipse cx="2.565" cy="2.431" rx="2.565" ry="2.431" transform="matrix(.79982 -.61213 .60158 .78972 36.32 23.222)" fill="#7277F9"/><g filter="url(#u)"><path d="M35.3 23.992c-1.747-1.34-1.432-3.646-1.057-4.631-.543.436-1.546 1.84-1.203 3.964.343 2.124 3.312 5.187 4.101 5.37.79.184 2.656-.803 4.719-2.58 2.957-2.547 2.138-6.018 2.138-6.018-.162-1.442-1.999-2.8-2.673-2.877-.539-.062-.514.212-.434.356 1.008.061 1.736 1.697 1.99 2.577.255.88-.568 2.928-1.542 3.87-.973.94-3.856 1.644-6.04-.031Z" fill="#4BAEB5"/></g><g filter="url(#v)"><path d="M27.417 25.615c-.81-.137-1.42.964-1.389 1.855.031.89.117 3.34 3.243 6.417 3.582 3.524 7.005 3.105 8.358 2.368 1.39-.776 4.747-2.403 7.063-2.698 2.315-.295 4.972-2.778 6.01-3.983.106-.19 0-.669-1.266-1.051-1.266-.383-6.668 1.19-9.21 2.025 4.794-3.588 5.09-4.718 5.69-6.756.48-1.63-1.156-4.292-2.072-4.915.7.857.723 2.502.478 4.103-.565 3.697-5.51 5.52-6.922 6.706-1.413 1.186-3.156 2.501-6.197 1.873-2.433-.502-2.888-2.643-2.811-3.65.012-.707-.165-2.156-.975-2.294Z" fill="#5BA7D1"/></g><g filter="url(#w)"><path d="M51.038 13.543c-2.36-3.674-10.702-2.25-14.422 3.29 11.882-2.381 16.042 7.893 14.457 10.539-1.268 2.116-1.347 7.317-1.228 9.653.459-.73 1.489-2.194 1.935-2.216 3.983-4.439 2.45-16.296-.742-21.266Z" fill="#5BA7D1"/></g><path d="M25.92 27.587c-.085 1.826.562 5.838 3.833 7.28 4.089 1.802 2.857 1.752 6.444 2.018" stroke="url(#x)"/><path d="M27.173 31.427c1.572 3.379 8.494 6.265 14.567 4.063 6.073-2.201 6.05-2.87 8.093-5.203" stroke="url(#y)"/><path d="M38.018 24.97c2.902-.146 3.983-1.204 4.603-2.685.619-1.481 1.164-5.078-3.324-5.521" stroke="url(#z)"/><path d="M38.018 24.97c2.902-.146 3.983-1.204 4.603-2.685.619-1.481 1.164-5.078-3.324-5.521" stroke="url(#A)"/><path d="M38.018 24.97c2.902-.146 3.983-1.204 4.603-2.685.619-1.481 1.164-5.078-3.324-5.521" stroke="url(#B)"/><path d="M37.16 16.426c.427-.58 6.272-6.116 11.02-4.682 4.746 1.434 6.561 8.593 5.998 14.867" stroke="url(#C)"/><path d="M40.862 13.562c9.684-4.502 12.415 6.38 13.254 11.268.702 4.091-2.951 5.167-4.488 12.383" stroke="#fff"/><path d="M57.227 17.87c3.868 1.887 10.102 7.5 4.097 14.85-7.507 9.19-11.244 11.05-15.482 11.375" stroke="url(#D)"/><path d="M22.862 32.871c.613 1.531.754 8.774 10.235 11.308 7.586 2.027 16.671-.802 20.266-2.47" stroke="url(#E)"/><path d="M45.6 21.131c1.08 1.024 1.803 4.237-3.939 8.898m2.41-11.052c2.514 1.547 4.564 9.028-9.053 12.948" stroke="url(#F)"/><defs><linearGradient id="a" x1="122.236" y1="13.879" x2="116.85" y2="39.252" gradientUnits="userSpaceOnUse"><stop stop-color="#29791C"/><stop offset="1" stop-color="#7D7A5F"/></linearGradient><linearGradient id="b" x1="109.369" y1="47.005" x2="87.974" y2="61.671" gradientUnits="userSpaceOnUse"><stop stop-color="#29791C"/><stop offset="1" stop-color="#7D7A5F"/></linearGradient><linearGradient id="c" x1="38.643" y1="41.456" x2="3.205" y2="64.571" gradientUnits="userSpaceOnUse"><stop stop-color="#29791C"/><stop offset="1" stop-color="#B5C37F"/></linearGradient><linearGradient id="d" x1="89.742" y1="27.602" x2="89.341" y2="35.567" gradientUnits="userSpaceOnUse"><stop stop-color="#fff" stop-opacity="0"/><stop offset="1" stop-color="#fff"/></linearGradient><linearGradient id="e" x1="80.082" y1="10.038" x2="79.326" y2="25.061" gradientUnits="userSpaceOnUse"><stop stop-color="#fff" stop-opacity="0"/><stop offset="1" stop-color="#fff"/></linearGradient><linearGradient id="f" x1="80.082" y1="10.038" x2="79.326" y2="25.061" gradientUnits="userSpaceOnUse"><stop stop-color="#fff" stop-opacity="0"/><stop offset="1" stop-color="#fff"/></linearGradient><linearGradient id="g" x1="100.122" y1="23.687" x2="87.073" y2="23.742" gradientUnits="userSpaceOnUse"><stop offset=".01" stop-color="#fff" stop-opacity="0"/><stop offset=".24" stop-color="#fff"/><stop offset=".818" stop-color="#fff"/><stop offset="1" stop-color="#fff" stop-opacity="0"/></linearGradient><linearGradient id="h" x1="99.49" y1="28.362" x2="70.448" y2="32.057" gradientUnits="userSpaceOnUse"><stop offset=".01" stop-color="#fff" stop-opacity="0"/><stop offset=".24" stop-color="#fff"/><stop offset=".818" stop-color="#fff"/><stop offset="1" stop-color="#fff" stop-opacity="0"/></linearGradient><linearGradient id="i" x1="86.218" y1="10.75" x2="85.844" y2="23.511" gradientUnits="userSpaceOnUse"><stop offset=".01" stop-color="#fff" stop-opacity="0"/><stop offset=".24" stop-color="#fff"/><stop offset=".818" stop-color="#fff"/><stop offset="1" stop-color="#fff" stop-opacity="0"/></linearGradient><linearGradient id="j" x1="86.218" y1="10.75" x2="85.844" y2="23.511" gradientUnits="userSpaceOnUse"><stop offset=".01" stop-color="#fff" stop-opacity="0"/><stop offset=".24" stop-color="#fff"/><stop offset=".818" stop-color="#fff"/><stop offset="1" stop-color="#fff" stop-opacity="0"/></linearGradient><linearGradient id="k" x1="86.218" y1="10.75" x2="85.844" y2="23.511" gradientUnits="userSpaceOnUse"><stop offset=".01" stop-color="#fff" stop-opacity="0"/><stop offset=".24" stop-color="#fff"/><stop offset=".818" stop-color="#fff"/><stop offset="1" stop-color="#fff" stop-opacity="0"/></linearGradient><linearGradient id="l" x1="89.21" y1="17.759" x2="80.377" y2="24.758" gradientUnits="userSpaceOnUse"><stop offset=".01" stop-color="#fff" stop-opacity="0"/><stop offset=".279" stop-color="#fff"/><stop offset=".818" stop-color="#fff"/><stop offset="1" stop-color="#fff" stop-opacity="0"/></linearGradient><linearGradient id="m" x1="86.034" y1="8.32" x2="75.792" y2="22.434" gradientUnits="userSpaceOnUse"><stop offset=".019" stop-color="#fff" stop-opacity=".07"/><stop offset=".56" stop-color="#fff"/><stop offset="1" stop-color="#fff" stop-opacity="0"/></linearGradient><linearGradient id="n" x1="76.391" y1="18.451" x2="58.394" y2="35.178" gradientUnits="userSpaceOnUse"><stop offset=".019" stop-color="#fff" stop-opacity=".07"/><stop offset=".56" stop-color="#fff"/><stop offset="1" stop-color="#fff" stop-opacity="0"/></linearGradient><linearGradient id="o" x1="103.213" y1="32.922" x2="97.6" y2="48.553" gradientUnits="userSpaceOnUse"><stop offset=".019" stop-color="#fff" stop-opacity=".07"/><stop offset=".56" stop-color="#fff"/><stop offset="1" stop-color="#fff" stop-opacity="0"/></linearGradient><linearGradient id="p" x1="82.718" y1="15.993" x2="75.206" y2="21.861" gradientUnits="userSpaceOnUse"><stop offset=".019" stop-color="#fff" stop-opacity=".07"/><stop offset=".56" stop-color="#fff"/><stop offset="1" stop-color="#fff" stop-opacity="0"/></linearGradient><linearGradient id="q" x1="33.918" y1="30.865" x2="34.251" y2="37.471" gradientUnits="userSpaceOnUse"><stop stop-color="#fff" stop-opacity="0"/><stop offset="1" stop-color="#fff"/></linearGradient><linearGradient id="r" x1="41.93" y1="16.297" x2="42.557" y2="28.757" gradientUnits="userSpaceOnUse"><stop stop-color="#fff" stop-opacity="0"/><stop offset="1" stop-color="#fff"/></linearGradient><linearGradient id="s" x1="41.93" y1="16.297" x2="42.557" y2="28.757" gradientUnits="userSpaceOnUse"><stop stop-color="#fff" stop-opacity="0"/><stop offset="1" stop-color="#fff"/></linearGradient><linearGradient id="x" x1="25.309" y1="27.617" x2="36.132" y2="27.663" gradientUnits="userSpaceOnUse"><stop offset=".01" stop-color="#fff" stop-opacity="0"/><stop offset=".24" stop-color="#fff"/><stop offset=".818" stop-color="#fff"/><stop offset="1" stop-color="#fff" stop-opacity="0"/></linearGradient><linearGradient id="y" x1="25.833" y1="31.495" x2="49.921" y2="34.56" gradientUnits="userSpaceOnUse"><stop offset=".01" stop-color="#fff" stop-opacity="0"/><stop offset=".24" stop-color="#fff"/><stop offset=".818" stop-color="#fff"/><stop offset="1" stop-color="#fff" stop-opacity="0"/></linearGradient><linearGradient id="z" x1="36.841" y1="16.887" x2="37.151" y2="27.471" gradientUnits="userSpaceOnUse"><stop offset=".01" stop-color="#fff" stop-opacity="0"/><stop offset=".24" stop-color="#fff"/><stop offset=".818" stop-color="#fff"/><stop offset="1" stop-color="#fff" stop-opacity="0"/></linearGradient><linearGradient id="A" x1="36.841" y1="16.887" x2="37.151" y2="27.471" gradientUnits="userSpaceOnUse"><stop offset=".01" stop-color="#fff" stop-opacity="0"/><stop offset=".24" stop-color="#fff"/><stop offset=".818" stop-color="#fff"/><stop offset="1" stop-color="#fff" stop-opacity="0"/></linearGradient><linearGradient id="B" x1="36.841" y1="16.887" x2="37.151" y2="27.471" gradientUnits="userSpaceOnUse"><stop offset=".01" stop-color="#fff" stop-opacity="0"/><stop offset=".24" stop-color="#fff"/><stop offset=".818" stop-color="#fff"/><stop offset="1" stop-color="#fff" stop-opacity="0"/></linearGradient><linearGradient id="C" x1="36.994" y1="14.872" x2="45.488" y2="26.578" gradientUnits="userSpaceOnUse"><stop offset=".019" stop-color="#fff" stop-opacity=".07"/><stop offset=".56" stop-color="#fff"/><stop offset="1" stop-color="#fff" stop-opacity="0"/></linearGradient><linearGradient id="D" x1="44.992" y1="23.275" x2="59.919" y2="37.148" gradientUnits="userSpaceOnUse"><stop offset=".019" stop-color="#fff" stop-opacity=".07"/><stop offset=".56" stop-color="#fff"/><stop offset="1" stop-color="#fff" stop-opacity="0"/></linearGradient><linearGradient id="E" x1="22.746" y1="35.277" x2="27.401" y2="48.242" gradientUnits="userSpaceOnUse"><stop offset=".019" stop-color="#fff" stop-opacity=".07"/><stop offset=".56" stop-color="#fff"/><stop offset="1" stop-color="#fff" stop-opacity="0"/></linearGradient><linearGradient id="F" x1="39.744" y1="21.236" x2="45.974" y2="26.103" gradientUnits="userSpaceOnUse"><stop offset=".019" stop-color="#fff" stop-opacity=".07"/><stop offset=".56" stop-color="#fff"/><stop offset="1" stop-color="#fff" stop-opacity="0"/></linearGradient><filter id="t" x="18.58" y="17.661" width="49.118" height="34.682" filterUnits="userSpaceOnUse" color-interpolation-filters="sRGB"><feFlood flood-opacity="0" result="BackgroundImageFix"/><feColorMatrix in="SourceAlpha" values="0 0 0 0 0 0 0 0 0 0 0 0 0 0 0 0 0 0 127 0" result="hardAlpha"/><feOffset dy="4"/><feGaussianBlur stdDeviation="2"/><feComposite in2="hardAlpha" operator="out"/><feColorMatrix values="0 0 0 0 0 0 0 0 0 0 0 0 0 0 0 0 0 0 0.25 0"/><feBlend in2="BackgroundImageFix" result="effect1_dropShadow_102_140"/><feBlend in="SourceGraphic" in2="effect1_dropShadow_102_140" result="shape"/></filter><filter id="u" x="28.97" y="17.211" width="19.132" height="19.506" filterUnits="userSpaceOnUse" color-interpolation-filters="sRGB"><feFlood flood-opacity="0" result="BackgroundImageFix"/><feColorMatrix in="SourceAlpha" values="0 0 0 0 0 0 0 0 0 0 0 0 0 0 0 0 0 0 127 0" result="hardAlpha"/><feOffset dy="4"/><feGaussianBlur stdDeviation="2"/><feComposite in2="hardAlpha" operator="out"/><feColorMatrix values="0 0 0 0 0 0 0 0 0 0 0 0 0 0 0 0 0 0 0.25 0"/><feBlend in2="BackgroundImageFix" result="effect1_dropShadow_102_140"/><feBlend in="SourceGraphic" in2="effect1_dropShadow_102_140" result="shape"/></filter><filter id="v" x="22.027" y="18.877" width="32.706" height="25.882" filterUnits="userSpaceOnUse" color-interpolation-filters="sRGB"><feFlood flood-opacity="0" result="BackgroundImageFix"/><feColorMatrix in="SourceAlpha" values="0 0 0 0 0 0 0 0 0 0 0 0 0 0 0 0 0 0 127 0" result="hardAlpha"/><feOffset dy="4"/><feGaussianBlur stdDeviation="2"/><feComposite in2="hardAlpha" operator="out"/><feColorMatrix values="0 0 0 0 0 0 0 0 0 0 0 0 0 0 0 0 0 0 0.25 0"/><feBlend in2="BackgroundImageFix" result="effect1_dropShadow_102_140"/><feBlend in="SourceGraphic" in2="effect1_dropShadow_102_140" result="shape"/></filter><filter id="w" x="32.616" y="11.509" width="25.55" height="33.516" filterUnits="userSpaceOnUse" color-interpolation-filters="sRGB"><feFlood flood-opacity="0" result="BackgroundImageFix"/><feColorMatrix in="SourceAlpha" values="0 0 0 0 0 0 0 0 0 0 0 0 0 0 0 0 0 0 127 0" result="hardAlpha"/><feOffset dy="4"/><feGaussianBlur stdDeviation="2"/><feComposite in2="hardAlpha" operator="out"/><feColorMatrix values="0 0 0 0 0 0 0 0 0 0 0 0 0 0 0 0 0 0 0.25 0"/><feBlend in2="BackgroundImageFix" result="effect1_dropShadow_102_140"/><feBlend in="SourceGraphic" in2="effect1_dropShadow_102_140" result="shape"/></filter></defs></svg>