<svg width="79" height="74" fill="none" xmlns="http://www.w3.org/2000/svg"><path d="M41.618 15.625c-9.815 1.128-11.413 9.698-10.986 13.842 1.891 3.4 7.645 9.595 15.537 7.17 7.891-2.423 14.15-15.044 16.294-21.05-2.865.869-8.575-1.372-20.845.038Z" fill="url(#a)"/><path d="M44.539 23.93c1.269-1.848 4.117-5.756 5.354-6.602" stroke="#fff"/><path d="M30.956 29.438c9.747-4.55 20.953-7.088 30.583-13.157" stroke="#fff"/><path d="M35.691 27.48c.991-2.639 3.403-8.262 5.121-9.64M33.797 28.263c.37.58 2.64 4.66 10.173 5.206M41.72 25.409c.934.834 5.41 2.573 9.616 2.195" stroke="#fff"/><path d="M18.358 39.95c1.095-10.111 10.321-11.697 14.798-11.226 3.692 1.973 10.447 7.95 7.93 16.07-2.517 8.118-16.056 14.48-22.511 16.647.903-2.948-1.586-8.85-.217-21.49Z" fill="url(#b)"/><path d="M27.356 43.02c-1.979 1.296-6.16 4.204-7.057 5.474" stroke="#fff"/><path d="M33.128 29.057c-4.787 10.017-7.386 21.551-13.815 31.436" stroke="#fff"/><path d="M31.076 33.925c-2.835 1.003-8.873 3.449-10.339 5.21M31.897 31.978c.63.386 5.06 2.754 5.743 10.526M28.916 40.127c.911.967 2.844 5.596 2.488 9.929" stroke="#fff"/><defs><linearGradient id="a" x1="45.982" y1="15.209" x2="47.92" y2="36.755" gradientUnits="userSpaceOnUse"><stop stop-color="#29791C"/><stop offset="1" stop-color="#7D7A5F"/></linearGradient><linearGradient id="b" x1="33.812" y1="28.776" x2="19.657" y2="61.1" gradientUnits="userSpaceOnUse"><stop stop-color="#29791C"/><stop offset="1" stop-color="#B5C37F"/></linearGradient></defs></svg>