<svg width="50" height="47" fill="none" xmlns="http://www.w3.org/2000/svg"><path d="M37.395 15.327c9.656 7.449 5.504 17.878 2.22 22.161-4.329 2.541-14.67 5.71-21.398-1.946S13.456 10.057 15.28 2.1c2.45 2.767 10.045 3.917 22.115 13.227Z" fill="url(#a)"/><path d="M28.623 22.609c-.086-2.834-.443-8.93-1.18-10.643" stroke="#fff"/><path d="M39.292 37.252C32.044 26.086 21.874 16.209 15.787 3.448" stroke="#fff"/><path d="M35.597 32.106c.75-3.527 2.027-11.233 1.143-13.835M37.075 34.164c-.788.402-5.984 3.451-14.36-.714M30.607 26.015c-1.56.327-7.503-.594-11.712-3.67" stroke="#fff"/><defs><linearGradient id="a" x1="39.151" y1="38.127" x2="14.952" y2="3.42" gradientUnits="userSpaceOnUse"><stop stop-color="#29791C"/><stop offset="1" stop-color="#B5C37F"/></linearGradient></defs></svg>